<svg xmlns="http://www.w3.org/2000/svg" width="150" height="150">
    <path fill="#2E71F2" fill-rule="evenodd" d="M75 149.999c-41.421 0-75-33.578-75-74.999C0 33.578 33.579 0 75 0s75 33.578 75 75c0 41.421-33.579 74.999-75 74.999zM75 4C35.851 4 4 35.85 4 75c0 39.149 31.851 71 71 71s71-31.851 71-71c0-39.15-31.85-71-71-71zm7.35 111.714l-6.07 5.052a1.998 1.998 0 0 1-2.559 0l-6.026-5.013C44.907 95.592 30 81.104 30 63.742c0-14.382 11.262-25.646 25.639-25.646 7.175 0 14.257 2.987 19.361 8.082 5.104-5.095 12.186-8.082 19.361-8.082C108.738 38.096 120 49.36 120 63.742c0 17.362-14.907 31.85-37.65 51.972zm12.011-73.617c-6.658 0-13.491 3.189-17.834 8.323-.76.899-2.294.899-3.054 0-4.343-5.134-11.176-8.323-17.834-8.323C43.505 42.097 34 51.603 34 63.742c0 15.648 15.046 30.17 36.3 48.976l4.7 3.91 4.746-3.949C100.955 93.912 116 79.39 116 63.742c0-12.139-9.505-21.645-21.639-21.645zm-38.582 9.237c-7.079 0-12.625 5.547-12.625 12.629a2 2 0 1 1-4 0c0-9.325 7.303-16.629 16.625-16.629a2 2 0 0 1 0 4z"/>
</svg>
